<svg width="62" height="55" viewBox="0 0 62 55" fill="none" xmlns="http://www.w3.org/2000/svg">
<g filter="url(#filter0_d_779_1298)">
<path fill-rule="evenodd" clip-rule="evenodd" d="M53.1828 5.3423C54.0826 6.00641 54.4736 6.74972 54.4735 7.47245V7.47249V38.8475C54.4735 41.1773 53.108 42.5547 51.4857 42.8252C49.8406 43.0995 47.4098 42.2968 45.3818 39.0536C45.1925 38.7508 45.0051 38.4453 44.8174 38.1395L44.8172 38.1392C43.7403 36.3843 42.657 34.6189 41.1835 33.304C39.3297 31.6498 36.9463 30.7423 33.3946 30.7423H31.6578V33.7423H33.3946C36.368 33.7423 37.9897 34.4749 39.1861 35.5424C40.3035 36.5395 41.1221 37.8666 42.2146 39.638L42.2149 39.6384C42.4126 39.9589 42.6192 40.2939 42.8382 40.6441C45.3184 44.6106 48.8194 46.3112 51.979 45.7844C55.1614 45.2538 57.4735 42.5257 57.4735 38.8475V7.47253V7.47249C57.4736 5.52561 56.3817 3.9747 54.9644 2.92858C53.5524 1.88641 51.7081 1.2466 49.8203 1.05786C46.0878 0.684686 41.5895 2.07088 39.7642 6.55118C39.1421 7.92826 37.7496 8.70671 36.2103 9.12316C35.4634 9.32522 34.7555 9.42029 34.231 9.46386C33.9708 9.48549 33.7609 9.49402 33.6204 9.49722C33.5502 9.49883 33.4978 9.49909 33.4654 9.49902L33.4323 9.49879L33.4306 9.49878C33.431 9.49879 33.4315 9.4988 33.3946 10.9983L33.3943 11.0103V9.4987H31.6575V12.4987H33.3943V12.4985C33.4109 12.4988 33.4324 12.499 33.4587 12.499C33.5147 12.4991 33.5922 12.4986 33.6888 12.4964C33.8818 12.492 34.1522 12.4808 34.4794 12.4536C35.1299 12.3995 36.0257 12.281 36.9937 12.0191C38.8767 11.5096 41.3528 10.3644 42.5149 7.74879L42.5253 7.72535L42.5349 7.70157C43.6825 4.86051 46.5885 3.7497 49.5219 4.04298C50.9708 4.18784 52.2777 4.67425 53.1828 5.3423ZM9.26339 5.34231C8.36364 6.00641 7.97264 6.74972 7.97266 7.47246V7.4725V38.8475C7.97266 41.1774 9.33814 42.5547 10.9605 42.8252C12.6056 43.0995 15.0364 42.2968 17.0643 39.0536C17.2537 38.7507 17.4413 38.4451 17.629 38.1392C18.7058 36.3843 19.7891 34.6189 21.2627 33.304C23.1165 31.6498 25.4999 30.7423 29.0516 30.7423H30.7884V33.7423H29.0516C26.0782 33.7423 24.4565 34.4749 23.2601 35.5424C22.1427 36.5395 21.3241 37.8666 20.2316 39.638C20.0338 39.9586 19.8271 40.2938 19.608 40.6441C17.1278 44.6106 13.6268 46.3112 10.4672 45.7844C7.28483 45.2538 4.97266 42.5257 4.97266 38.8475V7.47254V7.4725C4.97262 5.52561 6.06452 3.9747 7.48183 2.92858C8.89381 1.88641 10.7381 1.2466 12.6259 1.05786C16.3583 0.684688 20.8567 2.07089 22.682 6.55118C23.3041 7.92826 24.6966 8.70671 26.2359 9.12317C26.9828 9.32522 27.6907 9.42029 28.2152 9.46387C28.4754 9.48549 28.6853 9.49402 28.8258 9.49723C28.896 9.49883 28.9484 9.49909 28.9808 9.49902L29.0138 9.49879L29.0156 9.49878C29.0152 9.49879 29.0147 9.4988 29.0516 10.9983L29.0519 11.0102V9.4987H30.7887V12.4987H29.0519V12.4985C29.0353 12.4988 29.0138 12.499 28.9874 12.499C28.9315 12.4991 28.854 12.4987 28.7574 12.4964C28.5644 12.492 28.294 12.4808 27.9668 12.4536C27.3163 12.3995 26.4205 12.281 25.4524 12.0191C23.5695 11.5096 21.0934 10.3644 19.9313 7.74879L19.9209 7.72535L19.9113 7.70157C18.7637 4.86051 15.8577 3.7497 12.9243 4.04298C11.4754 4.18784 10.1685 4.67425 9.26339 5.34231Z" fill="black"/>
<path d="M54.4735 7.47245L53.9735 7.47244V7.47245H54.4735ZM53.1828 5.3423L53.4797 4.94002L53.4797 4.94002L53.1828 5.3423ZM51.4857 42.8252L51.5679 43.3184H51.5679L51.4857 42.8252ZM45.3818 39.0536L44.9579 39.3187V39.3187L45.3818 39.0536ZM44.8174 38.1395L44.39 38.399L44.3912 38.401L44.8174 38.1395ZM44.8172 38.1392L45.2446 37.8797L45.2434 37.8777L44.8172 38.1392ZM41.1835 33.304L41.5164 32.9309H41.5164L41.1835 33.304ZM31.6578 30.7423V30.2423H31.1578V30.7423H31.6578ZM31.6578 33.7423H31.1578V34.2423H31.6578V33.7423ZM39.1861 35.5424L38.8532 35.9155H38.8532L39.1861 35.5424ZM42.2146 39.638L41.7891 39.9005L41.7915 39.9044L42.2146 39.638ZM42.2149 39.6384L42.6405 39.3759L42.638 39.372L42.2149 39.6384ZM42.8382 40.6441L43.2621 40.379L43.2621 40.379L42.8382 40.6441ZM51.979 45.7844L52.0613 46.2776L51.979 45.7844ZM57.4735 7.47249L56.9735 7.47248V7.47249H57.4735ZM54.9644 2.92858L55.2613 2.5263L55.2613 2.5263L54.9644 2.92858ZM49.8203 1.05786L49.7706 1.55538L49.8203 1.05786ZM39.7642 6.55118L40.2198 6.75701L40.2237 6.74849L40.2272 6.73983L39.7642 6.55118ZM36.2103 9.12316L36.3409 9.60581L36.2103 9.12316ZM34.231 9.46386L34.1896 8.96558H34.1896L34.231 9.46386ZM33.6204 9.49722L33.6089 8.99735L33.6089 8.99736L33.6204 9.49722ZM33.4654 9.49902L33.4618 9.99901L33.4643 9.99902L33.4654 9.49902ZM33.4323 9.49879L33.4359 8.9988L33.4348 8.99879L33.4323 9.49879ZM33.4306 9.49878L33.433 8.99878L33.419 9.99864L33.4306 9.49878ZM33.3946 10.9983L32.8947 10.986V10.986L33.3946 10.9983ZM33.3943 11.0103H32.8943L33.8941 11.0226L33.3943 11.0103ZM33.3943 9.4987H33.8943V8.9987H33.3943V9.4987ZM31.6575 9.4987V8.9987H31.1575V9.4987H31.6575ZM31.6575 12.4987H31.1575V12.9987H31.6575V12.4987ZM33.3943 12.4987V12.9987H33.8943V12.4987H33.3943ZM33.3943 12.4985L33.4008 11.9986L32.8943 11.992V12.4985H33.3943ZM33.4587 12.499L33.4599 11.999H33.4599L33.4587 12.499ZM33.6888 12.4964L33.7002 12.9963H33.7002L33.6888 12.4964ZM34.4794 12.4536L34.438 11.9553L34.438 11.9553L34.4794 12.4536ZM36.9937 12.0191L36.8632 11.5364H36.8632L36.9937 12.0191ZM42.5149 7.74879L42.058 7.54578V7.54578L42.5149 7.74879ZM42.5253 7.72535L42.9823 7.92836L42.9857 7.92054L42.9889 7.9126L42.5253 7.72535ZM42.5349 7.70157L42.0713 7.5143L42.0713 7.51432L42.5349 7.70157ZM49.5219 4.04298L49.4721 4.5405L49.5219 4.04298ZM7.97266 7.47246H8.47266V7.47244L7.97266 7.47246ZM9.26339 5.34231L8.96646 4.94002L9.26339 5.34231ZM10.9605 42.8252L10.8783 43.3184H10.8783L10.9605 42.8252ZM17.0643 39.0536L16.6404 38.7885L17.0643 39.0536ZM17.629 38.1392L17.2028 37.8777H17.2028L17.629 38.1392ZM21.2627 33.304L20.9298 32.9309L21.2627 33.304ZM30.7884 30.7423H31.2884V30.2423H30.7884V30.7423ZM30.7884 33.7423V34.2423H31.2884V33.7423H30.7884ZM23.2601 35.5424L23.593 35.9155L23.2601 35.5424ZM20.2316 39.638L20.6571 39.9005L20.2316 39.638ZM19.608 40.6441L19.1841 40.379L19.608 40.6441ZM10.4672 45.7844L10.5494 45.2912H10.5494L10.4672 45.7844ZM4.97266 7.4725H5.47266V7.47249L4.97266 7.4725ZM7.48183 2.92858L7.77876 3.33087L7.77876 3.33087L7.48183 2.92858ZM12.6259 1.05786L12.6756 1.55538L12.6259 1.05786ZM22.682 6.55118L22.219 6.73983L22.2225 6.74849L22.2264 6.75701L22.682 6.55118ZM26.2359 9.12317L26.3665 8.64052H26.3665L26.2359 9.12317ZM28.2152 9.46387L28.1738 9.96215L28.2152 9.46387ZM28.8258 9.49723L28.8373 8.99736L28.8258 9.49723ZM28.9808 9.49902L28.9819 9.99903L28.9844 9.99901L28.9808 9.49902ZM29.0138 9.49879L29.0114 8.99879L29.0103 8.9988L29.0138 9.49879ZM29.0156 9.49878L29.0283 9.99862L29.0132 8.99878L29.0156 9.49878ZM29.0516 10.9983L29.5514 10.986V10.986L29.0516 10.9983ZM29.0519 11.0102L28.552 11.0225L29.5519 11.0102H29.0519ZM29.0519 9.4987V8.9987H28.5519V9.4987H29.0519ZM30.7887 9.4987H31.2887V8.9987H30.7887V9.4987ZM30.7887 12.4987V12.9987H31.2887V12.4987H30.7887ZM29.0519 12.4987H28.5519V12.9987H29.0519V12.4987ZM29.0519 12.4985H29.5519V11.992L29.0454 11.9986L29.0519 12.4985ZM28.9874 12.499L28.9886 12.999H28.9886L28.9874 12.499ZM28.7574 12.4964L28.7459 12.9963H28.746L28.7574 12.4964ZM27.9668 12.4536L27.9254 12.9518L27.9254 12.9518L27.9668 12.4536ZM25.4524 12.0191L25.583 11.5364H25.583L25.4524 12.0191ZM19.9313 7.74879L19.4743 7.95178L19.4743 7.9518L19.9313 7.74879ZM19.9209 7.72535L19.4573 7.91264L19.4605 7.92055L19.4639 7.92834L19.9209 7.72535ZM19.9113 7.70157L19.4477 7.88883L19.4477 7.88885L19.9113 7.70157ZM12.9243 4.04298L12.8746 3.54546L12.9243 4.04298ZM54.9735 7.47247C54.9736 6.54754 54.4676 5.6692 53.4797 4.94002L52.8859 5.74459C53.6975 6.34362 53.9735 6.9519 53.9735 7.47244L54.9735 7.47247ZM54.9735 7.47249V7.47245H53.9735V7.47249H54.9735ZM54.9735 38.8475V7.47249H53.9735V38.8475H54.9735ZM51.5679 43.3184C53.4486 43.0049 54.9735 41.4039 54.9735 38.8475H53.9735C53.9735 40.9508 52.7675 42.1046 51.4034 42.332L51.5679 43.3184ZM44.9579 39.3187C47.0624 42.6842 49.6721 43.6345 51.5679 43.3184L51.4034 42.332C50.0091 42.5645 47.7573 41.9094 45.8058 38.7885L44.9579 39.3187ZM44.3912 38.401C44.5787 38.7065 44.7673 39.0138 44.9579 39.3187L45.8058 38.7885C45.6178 38.4878 45.4314 38.1841 45.2436 37.878L44.3912 38.401ZM44.3898 38.3987L44.39 38.399L45.2448 37.88L45.2446 37.8797L44.3898 38.3987ZM40.8506 33.6771C42.2595 34.9343 43.3061 36.6326 44.391 38.4007L45.2434 37.8777C44.1746 36.136 43.0546 34.3035 41.5164 32.9309L40.8506 33.6771ZM33.3946 31.2423C36.8501 31.2423 39.1065 32.1208 40.8506 33.6771L41.5164 32.9309C39.5529 31.1789 37.0425 30.2423 33.3946 30.2423V31.2423ZM31.6578 31.2423H33.3946V30.2423H31.6578V31.2423ZM32.1578 33.7423V30.7423H31.1578V33.7423H32.1578ZM33.3946 33.2423H31.6578V34.2423H33.3946V33.2423ZM39.519 35.1693C38.2132 34.0041 36.4646 33.2423 33.3946 33.2423V34.2423C36.2714 34.2423 37.7663 34.9456 38.8532 35.9155L39.519 35.1693ZM42.6402 39.3755C41.5585 37.6218 40.7017 36.2247 39.519 35.1693L38.8532 35.9155C39.9053 36.8543 40.6856 38.1115 41.7891 39.9005L42.6402 39.3755ZM42.638 39.372L42.6377 39.3716L41.7915 39.9044L41.7918 39.9048L42.638 39.372ZM43.2621 40.379C43.0441 40.0303 42.8382 39.6966 42.6405 39.3759L41.7893 39.9009C41.9869 40.2212 42.1943 40.5575 42.4143 40.9092L43.2621 40.379ZM51.8968 45.2912C48.9907 45.7757 45.6677 44.2261 43.2621 40.379L42.4143 40.9092C44.9691 44.995 48.6481 46.8466 52.0613 46.2776L51.8968 45.2912ZM56.9735 38.8475C56.9735 42.302 54.8182 44.8041 51.8968 45.2912L52.0613 46.2776C55.5045 45.7035 57.9735 42.7494 57.9735 38.8475H56.9735ZM56.9735 7.47253V38.8475H57.9735V7.47253H56.9735ZM56.9735 7.47249V7.47253H57.9735V7.47249H56.9735ZM54.6674 3.33087C55.9994 4.31398 56.9736 5.73049 56.9735 7.47248L57.9735 7.4725C57.9736 5.32073 56.764 3.63542 55.2613 2.5263L54.6674 3.33087ZM49.7706 1.55538C51.5852 1.73681 53.34 2.35108 54.6674 3.33087L55.2613 2.5263C53.7648 1.42174 51.8309 0.756386 49.8701 0.560342L49.7706 1.55538ZM40.2272 6.73983C41.9396 2.53692 46.1698 1.19538 49.7706 1.55538L49.8701 0.560342C46.0059 0.173996 41.2395 1.60484 39.3011 6.36253L40.2272 6.73983ZM36.3409 9.60581C37.9373 9.17392 39.5068 8.33547 40.2198 6.75701L39.3085 6.34535C38.7774 7.52104 37.562 8.2395 36.0797 8.64051L36.3409 9.60581ZM34.2724 9.96215C34.8179 9.91682 35.5571 9.81784 36.3409 9.60581L36.0797 8.64051C35.3697 8.83259 34.6931 8.92375 34.1896 8.96558L34.2724 9.96215ZM33.6318 9.99709C33.781 9.99369 34.001 9.9847 34.2724 9.96215L34.1896 8.96558C33.9405 8.98627 33.7407 8.99435 33.6089 8.99735L33.6318 9.99709ZM33.4643 9.99902C33.5006 9.9991 33.5572 9.9988 33.6318 9.99709L33.6089 8.99736C33.5432 8.99886 33.4949 8.99909 33.4665 8.99902L33.4643 9.99902ZM33.4288 9.99877L33.4618 9.99901L33.469 8.99903L33.4359 8.9988L33.4288 9.99877ZM33.4282 9.99877L33.4299 9.99878L33.4348 8.99879L33.433 8.99878L33.4282 9.99877ZM33.8944 11.0106C33.9129 10.2609 33.922 9.88578 33.9264 9.69807C33.9287 9.60446 33.9297 9.5567 33.9302 9.53221C33.9304 9.52096 33.9306 9.51155 33.9307 9.50441C33.9307 9.50234 33.9307 9.49905 33.9306 9.49518C33.9306 9.49245 33.9305 9.48378 33.93 9.47287C33.9297 9.46746 33.929 9.45662 33.9275 9.44301C33.9264 9.4332 33.9228 9.40172 33.9118 9.36281C33.905 9.33891 33.8716 9.21734 33.7542 9.11763C33.6862 9.05994 33.6109 9.02696 33.5411 9.01115C33.5098 9.00405 33.4838 9.00135 33.4674 9.00014C33.4611 8.99971 33.4517 8.99922 33.4485 8.9991C33.4453 8.999 33.4422 8.99891 33.4422 8.99891L33.419 9.99864C33.419 9.99864 33.4158 9.99856 33.4126 9.99846C33.4095 9.99833 33.4 9.99784 33.3937 9.99742C33.3774 9.99621 33.3513 9.9935 33.32 9.9864C33.2503 9.9706 33.1749 9.93763 33.107 9.87994C32.9896 9.78024 32.9562 9.65869 32.9495 9.63484C32.9385 9.59597 32.9349 9.56456 32.9338 9.55485C32.9322 9.54135 32.9316 9.53064 32.9313 9.52542C32.9308 9.51488 32.9307 9.50676 32.9307 9.50486C32.9307 9.5018 32.9307 9.49961 32.9307 9.49901C32.9307 9.49774 32.9307 9.50004 32.9304 9.51222C32.93 9.5346 32.9289 9.58057 32.9267 9.6744C32.9223 9.86158 32.9132 10.2362 32.8947 10.986L33.8944 11.0106ZM33.8941 11.0226L33.8944 11.0106L32.8947 10.986L32.8945 10.998L33.8941 11.0226ZM32.8943 9.4987V11.0103H33.8943V9.4987H32.8943ZM31.6575 9.9987H33.3943V8.9987H31.6575V9.9987ZM32.1575 12.4987V9.4987H31.1575V12.4987H32.1575ZM33.3943 11.9987H31.6575V12.9987H33.3943V11.9987ZM32.8943 12.4985V12.4987H33.8943V12.4985H32.8943ZM33.4599 11.999C33.4354 11.999 33.4156 11.9988 33.4008 11.9986L33.3878 12.9985C33.4061 12.9987 33.4295 12.999 33.4576 12.999L33.4599 11.999ZM33.6774 11.9966C33.5852 11.9987 33.5119 11.9991 33.4599 11.999L33.4576 12.999C33.5175 12.9991 33.5992 12.9986 33.7002 12.9963L33.6774 11.9966ZM34.438 11.9553C34.1219 11.9815 33.8616 11.9924 33.6774 11.9966L33.7002 12.9963C33.9019 12.9917 34.1824 12.98 34.5208 12.9518L34.438 11.9553ZM36.8632 11.5364C35.932 11.7883 35.0675 11.903 34.438 11.9553L34.5208 12.9518C35.1923 12.896 36.1194 12.7736 37.1243 12.5017L36.8632 11.5364ZM42.058 7.54578C40.9869 9.95668 38.6909 11.0419 36.8632 11.5364L37.1243 12.5017C39.0625 11.9774 41.7188 10.7722 42.9718 7.9518L42.058 7.54578ZM42.0684 7.52234L42.058 7.54578L42.9718 7.9518L42.9823 7.92836L42.0684 7.52234ZM42.0713 7.51432L42.0617 7.5381L42.9889 7.9126L42.9985 7.88881L42.0713 7.51432ZM49.5716 3.54546C46.5003 3.23839 43.3297 4.39904 42.0713 7.5143L42.9985 7.88883C44.0354 5.32198 46.6767 4.26101 49.4721 4.5405L49.5716 3.54546ZM53.4797 4.94002C52.4902 4.20965 51.0937 3.69764 49.5716 3.54546L49.4721 4.5405C50.8478 4.67804 52.0652 5.13885 52.8859 5.74459L53.4797 4.94002ZM8.47266 7.47244C8.47264 6.9519 8.74872 6.34363 9.56032 5.74459L8.96646 4.94002C7.97855 5.6692 7.47263 6.54754 7.47266 7.47247L8.47266 7.47244ZM8.47266 7.4725V7.47246H7.47266V7.4725H8.47266ZM8.47266 38.8475V7.4725H7.47266V38.8475H8.47266ZM11.0428 42.332C9.67867 42.1046 8.47266 40.9508 8.47266 38.8475H7.47266C7.47266 41.4039 8.99762 43.0049 10.8783 43.3184L11.0428 42.332ZM16.6404 38.7885C14.6889 41.9094 12.4371 42.5645 11.0428 42.332L10.8783 43.3184C12.7741 43.6345 15.3838 42.6842 17.4883 39.3187L16.6404 38.7885ZM17.2028 37.8777C17.0149 38.1839 16.8285 38.4877 16.6404 38.7885L17.4883 39.3187C17.679 39.0137 17.8676 38.7063 18.0552 38.4007L17.2028 37.8777ZM20.9298 32.9309C19.3916 34.3035 18.2716 36.136 17.2028 37.8777L18.0552 38.4007C19.1401 36.6326 20.1867 34.9343 21.5956 33.6771L20.9298 32.9309ZM29.0516 30.2423C25.4037 30.2423 22.8933 31.1789 20.9298 32.9309L21.5956 33.6771C23.3397 32.1208 25.5961 31.2423 29.0516 31.2423V30.2423ZM30.7884 30.2423H29.0516V31.2423H30.7884V30.2423ZM31.2884 33.7423V30.7423H30.2884V33.7423H31.2884ZM29.0516 34.2423H30.7884V33.2423H29.0516V34.2423ZM23.593 35.9155C24.6799 34.9456 26.1748 34.2423 29.0516 34.2423V33.2423C25.9815 33.2423 24.233 34.0042 22.9272 35.1693L23.593 35.9155ZM20.6571 39.9005C21.7606 38.1115 22.5409 36.8543 23.593 35.9155L22.9272 35.1693C21.7445 36.2247 20.8877 37.6218 19.806 39.3755L20.6571 39.9005ZM20.0319 40.9092C20.252 40.5573 20.4595 40.2209 20.6571 39.9005L19.806 39.3755C19.6082 39.6963 19.4022 40.0302 19.1841 40.379L20.0319 40.9092ZM10.3849 46.2776C13.7981 46.8466 17.4771 44.995 20.0319 40.9092L19.1841 40.379C16.7785 44.2261 13.4555 45.7757 10.5494 45.2912L10.3849 46.2776ZM4.47266 38.8475C4.47266 42.7494 6.94167 45.7035 10.3849 46.2776L10.5494 45.2912C7.62799 44.8041 5.47266 42.302 5.47266 38.8475H4.47266ZM4.47266 7.47254V38.8475H5.47266V7.47254H4.47266ZM4.47266 7.4725V7.47254H5.47266V7.4725H4.47266ZM7.18491 2.5263C5.68223 3.63542 4.47261 5.32074 4.47266 7.47251L5.47266 7.47249C5.47262 5.73049 6.44681 4.31398 7.77876 3.33087L7.18491 2.5263ZM12.5761 0.560344C10.6153 0.756388 8.6814 1.42174 7.18491 2.5263L7.77876 3.33087C9.10622 2.35108 10.861 1.73681 12.6756 1.55538L12.5761 0.560344ZM23.1451 6.36253C21.2067 1.60485 16.4403 0.173998 12.5761 0.560344L12.6756 1.55538C16.2764 1.19538 20.5066 2.53693 22.219 6.73983L23.1451 6.36253ZM26.3665 8.64052C24.8842 8.2395 23.6688 7.52104 23.1377 6.34535L22.2264 6.75701C22.9394 8.33548 24.5089 9.17392 26.1053 9.60581L26.3665 8.64052ZM28.2566 8.96558C27.7531 8.92375 27.0765 8.83259 26.3665 8.64052L26.1053 9.60581C26.8891 9.81785 27.6283 9.91683 28.1738 9.96215L28.2566 8.96558ZM28.8373 8.99736C28.7055 8.99435 28.5056 8.98628 28.2566 8.96558L28.1738 9.96215C28.4452 9.9847 28.6652 9.99369 28.8144 9.9971L28.8373 8.99736ZM28.9797 8.99902C28.9512 8.99909 28.903 8.99886 28.8373 8.99736L28.8144 9.9971C28.889 9.9988 28.9456 9.9991 28.9819 9.99902L28.9797 8.99902ZM29.0103 8.9988L28.9772 8.99904L28.9844 9.99901L29.0174 9.99877L29.0103 8.9988ZM29.0132 8.99878L29.0114 8.99879L29.0162 9.99878L29.018 9.99877L29.0132 8.99878ZM29.5514 10.986C29.533 10.2362 29.5239 9.86158 29.5195 9.67441C29.5172 9.58057 29.5162 9.5346 29.5158 9.51222C29.5155 9.50004 29.5155 9.49774 29.5155 9.49901C29.5155 9.49961 29.5155 9.5018 29.5155 9.50486C29.5155 9.50676 29.5154 9.51488 29.5149 9.52542C29.5146 9.53064 29.514 9.54134 29.5124 9.55484C29.5113 9.56455 29.5077 9.59593 29.4968 9.63476C29.49 9.65865 29.4567 9.77993 29.3397 9.87956C29.1922 10.0051 29.0241 9.99872 29.0283 9.99862L29.003 8.99894C29.003 8.99894 28.9998 8.99903 28.9967 8.99914C28.9935 8.99927 28.984 8.99978 28.9777 9.00022C28.9614 9.00146 28.9354 9.00421 28.9041 9.01137C28.8345 9.0273 28.7593 9.06036 28.6916 9.11801C28.5745 9.21765 28.5412 9.33895 28.5344 9.36289C28.5234 9.40176 28.5198 9.43321 28.5187 9.44303C28.5172 9.45663 28.5165 9.46747 28.5162 9.47287C28.5157 9.48378 28.5156 9.49245 28.5156 9.49518C28.5155 9.49906 28.5155 9.50235 28.5155 9.50441C28.5156 9.51155 28.5157 9.52096 28.516 9.53221C28.5165 9.5567 28.5175 9.60446 28.5197 9.69807C28.5242 9.88579 28.5333 10.2609 28.5517 11.0106L29.5514 10.986ZM29.5517 10.9979L29.5514 10.986L28.5517 11.0106L28.552 11.0225L29.5517 10.9979ZM28.5519 9.4987V11.0102H29.5519V9.4987H28.5519ZM30.7887 8.9987H29.0519V9.9987H30.7887V8.9987ZM31.2887 12.4987V9.4987H30.2887V12.4987H31.2887ZM29.0519 12.9987H30.7887V11.9987H29.0519V12.9987ZM28.5519 12.4985V12.4987H29.5519V12.4985H28.5519ZM28.9886 12.999C29.0167 12.999 29.0401 12.9987 29.0584 12.9985L29.0454 11.9986C29.0306 11.9988 29.0108 11.999 28.9863 11.999L28.9886 12.999ZM28.746 12.9963C28.8469 12.9986 28.9287 12.9991 28.9886 12.999L28.9863 11.999C28.9343 11.9991 28.861 11.9987 28.7688 11.9966L28.746 12.9963ZM27.9254 12.9518C28.2638 12.98 28.5443 12.9917 28.7459 12.9963L28.7688 11.9966C28.5846 11.9924 28.3243 11.9815 28.0082 11.9553L27.9254 12.9518ZM25.3219 12.5017C26.3268 12.7736 27.2538 12.896 27.9254 12.9518L28.0082 11.9553C27.3787 11.903 26.5142 11.7883 25.583 11.5364L25.3219 12.5017ZM19.4743 7.9518C20.7274 10.7722 23.3837 11.9774 25.3219 12.5017L25.583 11.5364C23.7553 11.0419 21.4593 9.95669 20.3882 7.54579L19.4743 7.9518ZM19.4639 7.92834L19.4743 7.95178L20.3882 7.5458L20.3778 7.52236L19.4639 7.92834ZM19.4477 7.88885L19.4573 7.91264L20.3845 7.53807L20.3749 7.51429L19.4477 7.88885ZM12.9741 4.5405C15.7695 4.26101 18.4108 5.32198 19.4477 7.88883L20.3749 7.5143C19.1165 4.39904 15.9459 3.23839 12.8746 3.54546L12.9741 4.5405ZM9.56032 5.74459C10.381 5.13885 11.5984 4.67804 12.9741 4.5405L12.8746 3.54546C11.3525 3.69764 9.95599 4.20965 8.96646 4.94002L9.56032 5.74459Z" fill="black"/>
</g>
<g filter="url(#filter1_d_779_1298)">
<circle cx="45" cy="22" r="3.5" stroke="black" stroke-width="3" shape-rendering="crispEdges"/>
<circle cx="45" cy="22" r="3.5" stroke="black" stroke-opacity="0.2" stroke-width="3" shape-rendering="crispEdges"/>
</g>
<g filter="url(#filter2_d_779_1298)">
<circle cx="17" cy="22" r="3.5" stroke="black" stroke-width="3" shape-rendering="crispEdges"/>
</g>
<defs>
<filter id="filter0_d_779_1298" x="0.472656" y="0.5" width="61.5" height="53.8789" filterUnits="userSpaceOnUse" color-interpolation-filters="sRGB">
<feFlood flood-opacity="0" result="BackgroundImageFix"/>
<feColorMatrix in="SourceAlpha" type="matrix" values="0 0 0 0 0 0 0 0 0 0 0 0 0 0 0 0 0 0 127 0" result="hardAlpha"/>
<feOffset dy="4"/>
<feGaussianBlur stdDeviation="2"/>
<feComposite in2="hardAlpha" operator="out"/>
<feColorMatrix type="matrix" values="0 0 0 0 0 0 0 0 0 0 0 0 0 0 0 0 0 0 0.25 0"/>
<feBlend mode="normal" in2="BackgroundImageFix" result="effect1_dropShadow_779_1298"/>
<feBlend mode="normal" in="SourceGraphic" in2="effect1_dropShadow_779_1298" result="shape"/>
</filter>
<filter id="filter1_d_779_1298" x="36" y="17" width="18" height="18" filterUnits="userSpaceOnUse" color-interpolation-filters="sRGB">
<feFlood flood-opacity="0" result="BackgroundImageFix"/>
<feColorMatrix in="SourceAlpha" type="matrix" values="0 0 0 0 0 0 0 0 0 0 0 0 0 0 0 0 0 0 127 0" result="hardAlpha"/>
<feOffset dy="4"/>
<feGaussianBlur stdDeviation="2"/>
<feComposite in2="hardAlpha" operator="out"/>
<feColorMatrix type="matrix" values="0 0 0 0 0 0 0 0 0 0 0 0 0 0 0 0 0 0 0.25 0"/>
<feBlend mode="normal" in2="BackgroundImageFix" result="effect1_dropShadow_779_1298"/>
<feBlend mode="normal" in="SourceGraphic" in2="effect1_dropShadow_779_1298" result="shape"/>
</filter>
<filter id="filter2_d_779_1298" x="8" y="17" width="18" height="18" filterUnits="userSpaceOnUse" color-interpolation-filters="sRGB">
<feFlood flood-opacity="0" result="BackgroundImageFix"/>
<feColorMatrix in="SourceAlpha" type="matrix" values="0 0 0 0 0 0 0 0 0 0 0 0 0 0 0 0 0 0 127 0" result="hardAlpha"/>
<feOffset dy="4"/>
<feGaussianBlur stdDeviation="2"/>
<feComposite in2="hardAlpha" operator="out"/>
<feColorMatrix type="matrix" values="0 0 0 0 0 0 0 0 0 0 0 0 0 0 0 0 0 0 0.25 0"/>
<feBlend mode="normal" in2="BackgroundImageFix" result="effect1_dropShadow_779_1298"/>
<feBlend mode="normal" in="SourceGraphic" in2="effect1_dropShadow_779_1298" result="shape"/>
</filter>
</defs>
</svg>
