<svg width="59" height="60" viewBox="0 0 59 60" fill="none" xmlns="http://www.w3.org/2000/svg">
<g filter="url(#filter0_d_779_1652)">
<path d="M51.599 19.6673L32.3299 3.1971C30.8459 1.92863 28.663 1.91675 27.1652 3.16899L7.43429 19.6657C6.52529 20.4257 6 21.5496 6 22.7344V46C6 48.2091 7.79086 50 10 50H19.1915C21.4006 50 23.1915 48.2091 23.1915 46V33.3017C23.1915 31.0926 24.9823 29.3017 27.1915 29.3017H29.7594H31.9569C34.1661 29.3017 35.9569 31.0926 35.9569 33.3017V46C35.9569 48.2091 37.7478 50 39.9569 50H49C51.2091 50 53 48.2091 53 46V22.708C53 21.5383 52.4881 20.4273 51.599 19.6673Z" stroke="#222222" stroke-width="4" shape-rendering="crispEdges"/>
</g>
<defs>
<filter id="filter0_d_779_1652" x="0" y="0.238281" width="59" height="59.7617" filterUnits="userSpaceOnUse" color-interpolation-filters="sRGB">
<feFlood flood-opacity="0" result="BackgroundImageFix"/>
<feColorMatrix in="SourceAlpha" type="matrix" values="0 0 0 0 0 0 0 0 0 0 0 0 0 0 0 0 0 0 127 0" result="hardAlpha"/>
<feOffset dy="4"/>
<feGaussianBlur stdDeviation="2"/>
<feComposite in2="hardAlpha" operator="out"/>
<feColorMatrix type="matrix" values="0 0 0 0 0 0 0 0 0 0 0 0 0 0 0 0 0 0 0.25 0"/>
<feBlend mode="normal" in2="BackgroundImageFix" result="effect1_dropShadow_779_1652"/>
<feBlend mode="normal" in="SourceGraphic" in2="effect1_dropShadow_779_1652" result="shape"/>
</filter>
</defs>
</svg>
