<svg width="59" height="51" viewBox="0 0 59 51" fill="none" xmlns="http://www.w3.org/2000/svg">
<g filter="url(#filter0_d_779_1651)">
<path d="M6 38.9876V4.5766C6 4.13702 6.27625 3.7532 6.70056 3.63833C9.94032 2.76126 23.5318 -0.461401 28.7088 5.62471C29.2942 6.31295 30.6838 6.30201 31.2577 5.60417C36.2313 -0.443028 49.1772 2.74871 52.31 3.63283C52.7286 3.75097 53 4.13202 53 4.567V38.9082C53 39.7486 51.9939 40.256 51.2817 39.8098C47.5355 37.4625 38.3584 33.0584 30.7491 40.2486C30.3323 40.6424 29.6651 40.645 29.245 40.2548C21.3957 32.9642 11.5497 37.576 7.67554 39.8985C6.96682 40.3234 6 39.8139 6 38.9876Z" stroke="black" stroke-width="4" shape-rendering="crispEdges"/>
</g>
<defs>
<filter id="filter0_d_779_1651" x="0" y="0" width="59" height="50.5469" filterUnits="userSpaceOnUse" color-interpolation-filters="sRGB">
<feFlood flood-opacity="0" result="BackgroundImageFix"/>
<feColorMatrix in="SourceAlpha" type="matrix" values="0 0 0 0 0 0 0 0 0 0 0 0 0 0 0 0 0 0 127 0" result="hardAlpha"/>
<feOffset dy="4"/>
<feGaussianBlur stdDeviation="2"/>
<feComposite in2="hardAlpha" operator="out"/>
<feColorMatrix type="matrix" values="0 0 0 0 0 0 0 0 0 0 0 0 0 0 0 0 0 0 0.25 0"/>
<feBlend mode="normal" in2="BackgroundImageFix" result="effect1_dropShadow_779_1651"/>
<feBlend mode="normal" in="SourceGraphic" in2="effect1_dropShadow_779_1651" result="shape"/>
</filter>
</defs>
</svg>
